<?xml version="1.0" standalone="no"?>
<!DOCTYPE svg PUBLIC "-//W3C//DTD SVG 20010904//EN"
 "http://www.w3.org/TR/2001/REC-SVG-20010904/DTD/svg10.dtd">
<svg version="1.0" xmlns="http://www.w3.org/2000/svg"
 width="217.000000pt" height="290.000000pt" viewBox="0 0 217.000000 290.000000"
 preserveAspectRatio="xMidYMid meet">

<g transform="translate(0.000000,290.000000) scale(0.100000,-0.100000)"
fill="#000000" stroke="none">
<path d="M969 2404 c-5 -7 -26 -11 -47 -9 -20 1 -30 1 -20 -2 13 -3 14 -8 4
-26 -39 -72 -63 -85 -89 -46 -14 19 -17 17 -56 -51 -60 -104 -54 -158 27 -243
35 -36 38 -37 87 -31 27 4 53 12 57 18 5 7 17 3 35 -12 52 -42 70 -47 119 -34
58 16 86 15 120 -3 16 -8 34 -15 41 -15 22 0 72 51 78 80 13 60 -58 229 -97
230 -17 0 -22 9 -15 28 1 4 6 6 10 4 5 -1 6 2 2 8 -3 5 -10 10 -15 10 -5 0
-32 21 -61 48 -46 43 -56 47 -111 52 -39 3 -63 1 -69 -6z m189 -82 c4 -24 -7
-29 -26 -10 -18 18 -15 40 6 36 9 -2 18 -13 20 -26z m-194 12 c20 -8 21 -34 2
-34 -17 0 -38 24 -29 33 8 8 8 8 27 1z m89 -33 c5 -22 -1 -33 -14 -25 -12 7
-12 44 0 44 5 0 11 -9 14 -19z m-193 -63 c0 -5 -4 -8 -10 -8 -5 0 -10 10 -10
23 0 18 2 19 10 7 5 -8 10 -18 10 -22z m-80 -40 c0 -4 -7 -5 -15 -2 -8 4 -15
16 -15 28 1 21 1 21 15 2 8 -11 15 -23 15 -28z m186 -13 c1 -8 -2 -15 -7 -15
-12 0 -30 36 -22 44 9 8 26 -9 29 -29z m247 5 c3 -14 1 -20 -6 -17 -7 2 -14
14 -15 26 -4 28 13 20 21 -9z m-120 6 c20 -16 23 -36 4 -36 -17 0 -37 20 -37
37 0 16 10 16 33 -1z m207 -68 c0 -12 -14 -10 -27 3 -6 6 -9 18 -6 27 5 13 8
12 20 -4 7 -10 13 -21 13 -26z m-436 16 c16 -6 23 -34 8 -34 -10 0 -32 22 -32
32 0 10 3 10 24 2z m-98 -40 c2 -12 -1 -13 -12 -3 -7 6 -11 16 -8 21 7 11 17
3 20 -18z m224 -4 c8 -5 11 -12 8 -16 -10 -9 -38 3 -38 16 0 12 10 13 30 0z
m135 -13 c11 -9 14 -16 7 -21 -15 -9 -42 4 -42 20 0 18 11 18 35 1z m118 -31
c12 -10 15 -16 7 -21 -16 -10 -40 2 -40 20 0 18 9 19 33 1z m-355 -34 c3 -9
-2 -13 -14 -10 -9 1 -19 9 -22 16 -3 9 2 13 14 10 9 -1 19 -9 22 -16z m187
-18 c20 -15 20 -16 -4 -12 -14 2 -26 9 -29 16 -5 16 9 15 33 -4z"/>
<path d="M483 1574 c-8 -21 13 -42 28 -27 13 13 5 43 -11 43 -6 0 -13 -7 -17
-16z"/>
<path d="M177 1533 c-59 -83 -74 -132 -43 -150 7 -4 23 -27 35 -50 12 -24 24
-43 26 -43 3 0 -4 18 -15 40 -25 49 -25 50 1 50 12 0 37 -13 56 -30 27 -24 43
-30 78 -30 37 0 52 -6 82 -34 33 -29 46 -34 103 -38 53 -3 73 -9 104 -33 37
-28 39 -28 94 -17 59 12 53 14 119 -33 19 -15 27 -15 79 -1 56 15 58 15 102
-11 l44 -26 49 21 49 20 38 -21 39 -21 47 28 c44 26 53 27 117 21 64 -7 71 -5
100 19 25 21 41 26 89 26 52 0 63 4 100 35 34 28 50 35 85 35 35 0 51 7 85 35
45 38 48 39 69 26 20 -13 51 18 51 52 0 27 -47 133 -56 125 -2 -3 7 -30 22
-61 34 -77 30 -91 -28 -97 -32 -4 -57 -14 -75 -32 -21 -19 -42 -27 -81 -30
-44 -4 -59 -11 -82 -37 -27 -29 -34 -31 -93 -31 -56 0 -69 -4 -102 -30 -21
-17 -45 -28 -54 -26 -68 20 -94 18 -146 -9 -51 -28 -62 -28 -100 -1 -18 13
-25 12 -69 -6 l-49 -22 -43 23 c-43 23 -63 24 -137 5 -23 -5 -34 -1 -57 21
-28 27 -32 27 -100 21 -66 -7 -72 -6 -101 18 -26 22 -40 26 -94 26 -60 0 -67
2 -99 35 -30 30 -42 35 -83 35 -37 0 -53 5 -75 27 -20 19 -43 29 -76 33 -45 5
-47 6 -46 37 1 17 13 46 27 65 35 48 60 88 54 88 -3 0 -21 -21 -40 -47z"/>
<path d="M1643 1534 c-3 -8 1 -22 9 -30 13 -13 16 -13 27 0 7 9 11 23 7 31 -7
20 -35 19 -43 -1z"/>
<path d="M786 1524 c-7 -19 1 -34 19 -34 8 0 16 4 19 9 9 14 -4 41 -19 41 -7
0 -16 -7 -19 -16z"/>
<path d="M1264 1526 c-8 -22 3 -49 19 -43 6 2 12 14 12 27 0 27 -22 39 -31 16z"/>
<path d="M322 1468 c2 -12 10 -23 18 -23 22 0 19 39 -3 43 -15 3 -18 -1 -15
-20z"/>
<path d="M627 1484 c-15 -15 -7 -45 11 -42 9 2 17 12 17 22 0 20 -16 31 -28
20z"/>
<path d="M167 1456 c-7 -19 17 -51 31 -42 20 12 15 56 -7 56 -10 0 -21 -6 -24
-14z"/>
<path d="M1151 1456 c-16 -19 -7 -46 14 -46 22 0 30 29 13 46 -13 13 -16 13
-27 0z"/>
<path d="M1874 1455 c-9 -22 22 -53 37 -38 15 15 7 47 -14 51 -9 2 -20 -4 -23
-13z"/>
<path d="M920 1435 c0 -18 5 -25 20 -25 15 0 20 7 20 25 0 18 -5 25 -20 25
-15 0 -20 -7 -20 -25z"/>
<path d="M1456 1444 c-9 -24 13 -47 30 -33 19 15 18 35 -2 43 -21 8 -21 8 -28
-10z"/>
<path d="M463 1424 c-8 -21 13 -42 28 -27 13 13 5 43 -11 43 -6 0 -13 -7 -17
-16z"/>
<path d="M1710 1415 c-16 -19 -5 -47 17 -43 11 2 18 12 18 27 0 29 -17 37 -35
16z"/>
<path d="M724 1385 c-7 -18 3 -35 22 -35 8 0 14 10 14 25 0 27 -27 35 -36 10z"/>
<path d="M1337 1393 c-11 -10 -8 -41 3 -48 19 -12 41 15 29 36 -10 20 -21 24
-32 12z"/>
<path d="M530 1300 c0 -13 7 -20 20 -20 13 0 20 7 20 20 0 13 -7 20 -20 20
-13 0 -20 -7 -20 -20z"/>
<path d="M1047 1313 c-4 -3 -7 -17 -7 -30 0 -26 34 -33 44 -8 11 30 -17 59
-37 38z"/>
<path d="M1520 1296 c0 -28 24 -41 39 -22 15 18 3 46 -20 46 -13 0 -19 -7 -19
-24z"/>
<path d="M784 1286 c-8 -22 3 -49 19 -43 6 2 12 14 12 27 0 27 -22 39 -31 16z"/>
<path d="M1250 1266 c0 -32 18 -43 37 -23 20 20 10 47 -17 47 -15 0 -20 -7
-20 -24z"/>
<path d="M1885 1279 c-4 -6 -5 -12 -2 -15 2 -3 7 2 10 11 7 17 1 20 -8 4z"/>
<path d="M200 1275 c0 -5 5 -17 10 -25 5 -8 10 -10 10 -5 0 6 -5 17 -10 25 -5
8 -10 11 -10 5z"/>
<path d="M290 1265 c0 -5 5 -17 10 -25 5 -8 10 -10 10 -5 0 6 -5 17 -10 25 -5
8 -10 11 -10 5z"/>
<path d="M220 1225 c0 -5 5 -17 10 -25 5 -8 10 -10 10 -5 0 6 -5 17 -10 25 -5
8 -10 11 -10 5z"/>
<path d="M451 1180 c0 -8 4 -24 9 -35 5 -13 9 -14 9 -5 0 8 -4 24 -9 35 -5 13
-9 14 -9 5z"/>
<path d="M332 1155 c0 -5 6 -26 13 -45 7 -19 14 -28 14 -20 0 8 -6 29 -14 45
-7 17 -13 26 -13 20z"/>
<path d="M821 1104 c0 -11 3 -14 6 -6 3 7 2 16 -1 19 -3 4 -6 -2 -5 -13z"/>
<path d="M1042 698 c-2 -399 -3 -418 -21 -418 -10 0 -46 3 -80 7 -51 5 -64 10
-71 27 -8 19 -9 19 -9 2 -1 -16 -6 -17 -48 -11 -98 14 -93 6 -95 167 l-2 143
-3 -137 c-4 -155 0 -149 -83 -124 -45 13 -45 13 -51 67 l-6 54 -1 -47 c-1 -28
-7 -48 -13 -48 -21 0 -89 44 -89 57 0 8 -4 11 -10 8 -16 -10 -57 39 -69 81 -6
22 -11 55 -12 74 0 19 -3 29 -6 22 -3 -7 -2 -38 2 -69 12 -100 98 -165 295
-221 182 -53 211 -57 440 -57 l215 0 110 38 c124 41 227 103 251 150 9 16 18
58 20 91 5 74 -2 63 -11 -18 -5 -47 -13 -65 -41 -95 -28 -30 -35 -34 -44 -21
-8 12 -10 11 -10 -7 0 -15 -12 -27 -43 -42 -55 -27 -67 -26 -68 2 -1 18 -3 16
-8 -7 -5 -24 -14 -31 -51 -42 -72 -22 -69 -27 -73 114 l-3 127 -2 -132 c-2
-148 6 -133 -84 -148 -30 -5 -37 -2 -41 12 -4 17 -5 17 -6 1 -1 -16 -12 -18
-86 -18 l-85 0 -3 418 -2 417 -3 -417z"/>
<path d="M1421 1094 c0 -11 3 -14 6 -6 3 7 2 16 -1 19 -3 4 -6 -2 -5 -13z"/>
<path d="M1581 1074 c0 -11 3 -14 6 -6 3 7 2 16 -1 19 -3 4 -6 -2 -5 -13z"/>
<path d="M361 1054 c0 -11 3 -14 6 -6 3 7 2 16 -1 19 -3 4 -6 -2 -5 -13z"/>
<path d="M1231 1054 c0 -11 3 -14 6 -6 3 7 2 16 -1 19 -3 4 -6 -2 -5 -13z"/>
<path d="M1411 1054 c0 -11 3 -14 6 -6 3 7 2 16 -1 19 -3 4 -6 -2 -5 -13z"/>
<path d="M491 1044 c0 -11 3 -14 6 -6 3 7 2 16 -1 19 -3 4 -6 -2 -5 -13z"/>
<path d="M661 1044 c0 -11 3 -14 6 -6 3 7 2 16 -1 19 -3 4 -6 -2 -5 -13z"/>
<path d="M1701 1034 c0 -11 3 -14 6 -6 3 7 2 16 -1 19 -3 4 -6 -2 -5 -13z"/>
<path d="M371 1014 c0 -11 3 -14 6 -6 3 7 2 16 -1 19 -3 4 -6 -2 -5 -13z"/>
<path d="M1401 1014 c0 -11 3 -14 6 -6 3 7 2 16 -1 19 -3 4 -6 -2 -5 -13z"/>
<path d="M301 1010 c0 -8 4 -24 9 -35 5 -13 9 -14 9 -5 0 8 -4 24 -9 35 -5 13
-9 14 -9 5z"/>
<path d="M501 1004 c0 -11 3 -14 6 -6 3 7 2 16 -1 19 -3 4 -6 -2 -5 -13z"/>
<path d="M671 1004 c0 -11 3 -14 6 -6 3 7 2 16 -1 19 -3 4 -6 -2 -5 -13z"/>
<path d="M841 1004 c0 -11 3 -14 6 -6 3 7 2 16 -1 19 -3 4 -6 -2 -5 -13z"/>
<path d="M1561 1004 c0 -11 3 -14 6 -6 3 7 2 16 -1 19 -3 4 -6 -2 -5 -13z"/>
<path d="M1221 994 c0 -11 3 -14 6 -6 3 7 2 16 -1 19 -3 4 -6 -2 -5 -13z"/>
<path d="M1691 994 c0 -11 3 -14 6 -6 3 7 2 16 -1 19 -3 4 -6 -2 -5 -13z"/>
<path d="M381 974 c0 -11 3 -14 6 -6 3 7 2 16 -1 19 -3 4 -6 -2 -5 -13z"/>
<path d="M1391 974 c0 -11 3 -14 6 -6 3 7 2 16 -1 19 -3 4 -6 -2 -5 -13z"/>
<path d="M512 960 c0 -14 2 -19 5 -12 2 6 2 18 0 25 -3 6 -5 1 -5 -13z"/>
<path d="M852 960 c0 -14 2 -19 5 -12 2 6 2 18 0 25 -3 6 -5 1 -5 -13z"/>
<path d="M1551 964 c0 -11 3 -14 6 -6 3 7 2 16 -1 19 -3 4 -6 -2 -5 -13z"/>
<path d="M682 950 c0 -14 2 -19 5 -12 2 6 2 18 0 25 -3 6 -5 1 -5 -13z"/>
<path d="M1681 954 c0 -11 3 -14 6 -6 3 7 2 16 -1 19 -3 4 -6 -2 -5 -13z"/>
<path d="M321 934 c0 -11 3 -14 6 -6 3 7 2 16 -1 19 -3 4 -6 -2 -5 -13z"/>
<path d="M1212 930 c0 -14 2 -19 5 -12 2 6 2 18 0 25 -3 6 -5 1 -5 -13z"/>
<path d="M391 924 c0 -11 3 -14 6 -6 3 7 2 16 -1 19 -3 4 -6 -2 -5 -13z"/>
<path d="M1382 920 c0 -14 2 -19 5 -12 2 6 2 18 0 25 -3 6 -5 1 -5 -13z"/>
<path d="M1541 914 c0 -11 3 -14 6 -6 3 7 2 16 -1 19 -3 4 -6 -2 -5 -13z"/>
<path d="M522 900 c0 -14 2 -19 5 -12 2 6 2 18 0 25 -3 6 -5 1 -5 -13z"/>
<path d="M863 885 c0 -22 2 -30 4 -17 2 12 2 30 0 40 -3 9 -5 -1 -4 -23z"/>
<path d="M1671 904 c0 -11 3 -14 6 -6 3 7 2 16 -1 19 -3 4 -6 -2 -5 -13z"/>
<path d="M1751 904 c0 -11 3 -14 6 -6 3 7 2 16 -1 19 -3 4 -6 -2 -5 -13z"/>
<path d="M331 894 c0 -11 3 -14 6 -6 3 7 2 16 -1 19 -3 4 -6 -2 -5 -13z"/>
<path d="M692 880 c0 -19 2 -27 5 -17 2 9 2 25 0 35 -3 9 -5 1 -5 -18z"/>
<path d="M402 870 c0 -14 2 -19 5 -12 2 6 2 18 0 25 -3 6 -5 1 -5 -13z"/>
<path d="M1532 860 c0 -14 2 -19 5 -12 2 6 2 18 0 25 -3 6 -5 1 -5 -13z"/>
<path d="M1372 845 c0 -16 2 -22 5 -12 2 9 2 23 0 30 -3 6 -5 -1 -5 -18z"/>
<path d="M341 844 c0 -11 3 -14 6 -6 3 7 2 16 -1 19 -3 4 -6 -2 -5 -13z"/>
<path d="M1661 844 c0 -11 3 -14 6 -6 3 7 2 16 -1 19 -3 4 -6 -2 -5 -13z"/>
<path d="M532 830 c0 -14 2 -19 5 -12 2 6 2 18 0 25 -3 6 -5 1 -5 -13z"/>
<path d="M1204 700 c0 -85 2 -120 3 -77 2 42 2 112 0 155 -1 42 -3 7 -3 -78z"/>
<path d="M1732 820 c0 -14 2 -19 5 -12 2 6 2 18 0 25 -3 6 -5 1 -5 -13z"/>
<path d="M412 810 c0 -14 2 -19 5 -12 2 6 2 18 0 25 -3 6 -5 1 -5 -13z"/>
<path d="M352 785 c0 -16 2 -22 5 -12 2 9 2 23 0 30 -3 6 -5 -1 -5 -18z"/>
<path d="M1522 790 c0 -14 2 -19 5 -12 2 6 2 18 0 25 -3 6 -5 1 -5 -13z"/>
<path d="M703 755 c0 -27 2 -38 4 -22 2 15 2 37 0 50 -2 12 -4 0 -4 -28z"/>
<path d="M1651 784 c0 -11 3 -14 6 -6 3 7 2 16 -1 19 -3 4 -6 -2 -5 -13z"/>
<path d="M1722 760 c0 -19 2 -27 5 -17 2 9 2 25 0 35 -3 9 -5 1 -5 -18z"/>
<path d="M542 755 c0 -16 2 -22 5 -12 2 9 2 23 0 30 -3 6 -5 -1 -5 -18z"/>
<path d="M874 560 c0 -124 2 -174 3 -112 2 61 2 163 0 225 -1 61 -3 11 -3
-113z"/>
<path d="M422 750 c0 -14 2 -19 5 -12 2 6 2 18 0 25 -3 6 -5 1 -5 -13z"/>
<path d="M1363 735 c0 -22 2 -30 4 -17 2 12 2 30 0 40 -3 9 -5 -1 -4 -23z"/>
<path d="M363 695 c0 -27 2 -38 4 -22 2 15 2 37 0 50 -2 12 -4 0 -4 -28z"/>
<path d="M1642 720 c0 -14 2 -19 5 -12 2 6 2 18 0 25 -3 6 -5 1 -5 -13z"/>
<path d="M1512 710 c0 -14 2 -19 5 -12 2 6 2 18 0 25 -3 6 -5 1 -5 -13z"/>
<path d="M1713 665 c0 -27 2 -38 4 -22 2 15 2 37 0 50 -2 12 -4 0 -4 -28z"/>
<path d="M432 675 c0 -16 2 -22 5 -12 2 9 2 23 0 30 -3 6 -5 -1 -5 -18z"/>
<path d="M553 655 c0 -22 2 -30 4 -17 2 12 2 30 0 40 -3 9 -5 -1 -4 -23z"/>
<path d="M1632 650 c0 -19 2 -27 5 -17 2 9 2 25 0 35 -3 9 -5 1 -5 -18z"/>
<path d="M1503 595 c0 -22 2 -30 4 -17 2 12 2 30 0 40 -3 9 -5 -1 -4 -23z"/>
<path d="M442 600 c0 -14 2 -19 5 -12 2 6 2 18 0 25 -3 6 -5 1 -5 -13z"/>
<path d="M1622 575 c0 -16 2 -22 5 -12 2 9 2 23 0 30 -3 6 -5 -1 -5 -18z"/>
<path d="M562 540 c0 -19 2 -27 5 -17 2 9 2 25 0 35 -3 9 -5 1 -5 -18z"/>
<path d="M453 505 c0 -27 2 -38 4 -22 2 15 2 37 0 50 -2 12 -4 0 -4 -28z"/>
<path d="M1613 485 c0 -27 2 -38 4 -22 2 15 2 37 0 50 -2 12 -4 0 -4 -28z"/>
<path d="M1493 475 c0 -27 2 -38 4 -22 2 15 2 37 0 50 -2 12 -4 0 -4 -28z"/>
<path d="M1213 385 c0 -33 2 -45 4 -27 2 18 2 45 0 60 -2 15 -4 0 -4 -33z"/>
</g>
</svg>
